<svg width="257" height="43" viewBox="0 0 257 43" fill="none" xmlns="http://www.w3.org/2000/svg">
<path d="M0.000117302 -1.14441e-05H13.5041L27.0721 23.744L25.9201 14.72V-1.14441e-05H39.4881V41.792H25.9201L12.4161 18.112L13.5041 27.136V41.792H0.000117302V-1.14441e-05ZM44.8111 -1.14441e-05H78.6671V10.176H58.3151V15.808H75.2751V24.832H58.3151V31.616H78.6671V41.792H44.8111V-1.14441e-05ZM84.4481 -1.14441e-05H99.1041L104.8 9.08799L110.432 -1.14441e-05H125.088L111.52 19.2L127.328 41.792H111.52L104.8 30.528L98.0161 41.792H83.2961L98.0161 19.2L84.4481 -1.14441e-05ZM131.615 -1.14441e-05H145.119V25.984C145.119 28.1173 145.673 29.7813 146.783 30.976C147.892 32.1707 149.236 32.768 150.815 32.768C152.308 32.768 153.609 32.1707 154.719 30.976C155.871 29.7813 156.447 28.1173 156.447 25.984V-1.14441e-05H169.951V24.832C169.951 30.8053 168.308 35.328 165.023 38.4C161.78 41.4293 157.044 42.944 150.815 42.944C144.543 42.944 139.764 41.4293 136.479 38.4C133.236 35.328 131.615 30.8053 131.615 24.832V-1.14441e-05ZM174.555 -1.14441e-05H188.123V31.616H207.323V41.792H174.555V-1.14441e-05ZM227.543 -1.14441e-05H241.047L256.855 41.792H242.199L240.599 36.16H227.991L226.391 41.792H211.735L227.543 -1.14441e-05ZM234.327 13.568L230.231 28.224H238.359L234.327 13.568Z" fill="white" fill-opacity="0.58"/>
</svg>
