<svg width="358" height="357" viewBox="0 0 358 357" fill="none" xmlns="http://www.w3.org/2000/svg">
<path d="M115.467 152.283C97.989 134.805 89.25 113.794 89.25 89.25C89.25 64.7062 97.989 43.6953 115.467 26.2172C132.945 8.73906 153.956 0 178.5 0C203.044 0 224.055 8.73906 241.533 26.2172C259.011 43.6953 267.75 64.7062 267.75 89.25C267.75 113.794 259.011 134.805 241.533 152.283C224.055 169.761 203.044 178.5 178.5 178.5C153.956 178.5 132.945 169.761 115.467 152.283ZM0 312.375V294.525C0 281.881 3.25763 270.264 9.77288 259.673C16.2881 249.082 24.9305 240.99 35.7 235.397C58.7562 223.869 82.1844 215.226 105.984 209.47C129.784 203.713 153.956 200.827 178.5 200.812C203.044 200.798 227.216 203.683 251.016 209.47C274.816 215.256 298.244 223.898 321.3 235.397C332.084 240.975 340.734 249.067 347.249 259.673C353.765 270.279 357.015 281.896 357 294.525V312.375C357 324.647 352.634 335.156 343.903 343.903C335.171 352.649 324.662 357.015 312.375 357H44.625C32.3531 357 21.8514 352.634 13.1197 343.903C4.38812 335.171 0.014875 324.662 0 312.375Z" fill="#7C0E0E"/>
<rect x="0.5" width="357" height="357" fill="white" fill-opacity="0.1"/>
</svg>
