<svg width="448" height="99" viewBox="0 0 448 99" fill="none" xmlns="http://www.w3.org/2000/svg">
<rect width="448" height="99" rx="49.5" fill="white" fill-opacity="0.1"/>
<path d="M80.08 70C79.0133 70 78.0267 69.7333 77.12 69.2C76.2133 68.6667 75.4933 67.9467 74.96 67.04C74.4267 66.1333 74.16 65.1467 74.16 64.08V61.4H80.36V63.76H96.68V58.72H80.08C79.0133 58.72 78.0267 58.4533 77.12 57.92C76.2133 57.3867 75.4933 56.68 74.96 55.8C74.4267 54.8933 74.16 53.8933 74.16 52.8V47.12C74.16 46.0267 74.4267 45.04 74.96 44.16C75.4933 43.2533 76.2133 42.5333 77.12 42C78.0267 41.4667 79.0133 41.2 80.08 41.2H97.04C98.1067 41.2 99.08 41.4667 99.96 42C100.867 42.5333 101.587 43.2533 102.12 44.16C102.68 45.04 102.96 46.0267 102.96 47.12V49.8H96.68V47.44H80.36V52.48H97.04C98.1067 52.48 99.08 52.7467 99.96 53.28C100.867 53.8133 101.587 54.5333 102.12 55.44C102.68 56.32 102.96 57.3067 102.96 58.4V64.08C102.96 65.1467 102.68 66.1333 102.12 67.04C101.587 67.9467 100.867 68.6667 99.96 69.2C99.08 69.7333 98.1067 70 97.04 70H80.08ZM117.205 70V47.44H105.925V41.2H134.725V47.44H123.445V70H117.205ZM137.797 70V47.12C137.797 46.0267 138.063 45.04 138.597 44.16C139.13 43.2533 139.85 42.5333 140.757 42C141.663 41.4667 142.65 41.2 143.717 41.2H160.637C161.73 41.2 162.717 41.4667 163.597 42C164.503 42.5333 165.223 43.2533 165.757 44.16C166.317 45.04 166.597 46.0267 166.597 47.12V70H160.317V60.72H143.997V70H137.797ZM143.997 54.48H160.317V47.44H143.997V54.48ZM181.054 70V59.24L167.734 41.2H175.134L184.174 52.56L193.174 41.2H200.654L187.294 59.28V70H181.054ZM225.291 70V47.44H214.011V41.2H242.811V47.44H231.531V70H225.291ZM251.643 70C250.576 70 249.589 69.7333 248.683 69.2C247.776 68.6667 247.056 67.9467 246.523 67.04C245.989 66.1333 245.723 65.1467 245.723 64.08V41.2H251.923V63.76H268.243V41.2H274.523V64.08C274.523 65.1467 274.243 66.1333 273.683 67.04C273.149 67.9467 272.429 68.6667 271.523 69.2C270.643 69.7333 269.669 70 268.603 70H251.643ZM278.928 70V41.2H285.328L301.448 60.4V41.2H307.728V70H301.328L285.128 50.72V70H278.928ZM312.289 70V41.2H338.889V47.44H318.569V52.48H334.929V58.72H318.569V63.76H338.889V70H312.289ZM342.914 70V41.2H365.754C366.847 41.2 367.834 41.4667 368.714 42C369.62 42.5333 370.34 43.2533 370.874 44.16C371.434 45.04 371.714 46.0267 371.714 47.12V64.08C371.714 65.1467 371.434 66.1333 370.874 67.04C370.34 67.9467 369.62 68.6667 368.714 69.2C367.834 69.7333 366.847 70 365.754 70H342.914ZM349.074 63.76H365.434V47.44H349.074V63.76Z" fill="#7C0E0E"/>
</svg>
